HIERARCHY
ROOT Hip
{
  OFFSET 0.0 0.0 0.0
  CHANNELS 6 Xposition Yposition Zposition Xrotation Yrotation Zrotation
  JOINT LowerSpine
  {
    OFFSET 0.0 0.061367 -0.03653
    CHANNELS 3 Xrotation Yrotation Zrotation
    JOINT MiddleSpine
    {
      OFFSET 0.0 0.056002 0.002633
      CHANNELS 3 Xrotation Yrotation Zrotation
      JOINT Chest
      {
        OFFSET 0.0 0.069296 -0.013882
        CHANNELS 3 Xrotation Yrotation Zrotation
        JOINT Neck
        {
          OFFSET 0.0 0.156156 -0.002923
          CHANNELS 3 Xrotation Yrotation Zrotation
          JOINT Head
          {
            OFFSET 0.0 0.088183 0.023986
            CHANNELS 3 Xrotation Yrotation Zrotation
            End Site
            {
              OFFSET 1e-06 0.123215 0.003678
            }
          }
        }
        JOINT LClavicle
        {
          OFFSET 0.014189 0.150698 0.046467
          CHANNELS 3 Xrotation Yrotation Zrotation
          JOINT LShoulder
          {
            OFFSET 0.082893 0.021616 -0.034976
            CHANNELS 3 Xrotation Yrotation Zrotation
            JOINT LForearm
            {
              OFFSET 0.195645 -0.000695 -0.001695
              CHANNELS 3 Xrotation Yrotation Zrotation
              JOINT LHand
              {
                OFFSET 0.163209 0.000474 -0.000977
                CHANNELS 3 Xrotation Yrotation Zrotation
                End Site
                {
                  OFFSET 0.0 0.006864 0.0
                }
              }
            }
          }
        }
        JOINT RClavicle
        {
          OFFSET -0.014189 0.150698 0.046467
          CHANNELS 3 Xrotation Yrotation Zrotation
          JOINT RShoulder
          {
            OFFSET -0.082908 0.021619 -0.034982
            CHANNELS 3 Xrotation Yrotation Zrotation
            JOINT RForearm
            {
              OFFSET -0.195645 -0.000695 -0.001695
              CHANNELS 3 Xrotation Yrotation Zrotation
              JOINT RHand
              {
                OFFSET -0.163209 0.000474 -0.000977
                CHANNELS 3 Xrotation Yrotation Zrotation
                End Site
                {
                  OFFSET 0.0 0.006864 0.0
                }
              }
            }
          }
        }
      }
    }
  }
  JOINT RThigh
  {
    OFFSET -0.072558 0.02774 -0.005953
    CHANNELS 3 Xrotation Yrotation Zrotation
    JOINT RShin
    {
      OFFSET -0.005253 -0.285537 0.0
      CHANNELS 3 Xrotation Yrotation Zrotation
      JOINT RFoot
      {
        OFFSET 0.0 -0.28038 0.0
        CHANNELS 3 Xrotation Yrotation Zrotation
        JOINT RToe
        {
          OFFSET 0.0 -0.030816 0.064441
          CHANNELS 3 Xrotation Yrotation Zrotation
          End Site
          {
            OFFSET 0.0 0.0 0.043231
          }
        }
      }
    }
  }
  JOINT LThigh
  {
    OFFSET 0.072557 0.027741 -0.005953
    CHANNELS 3 Xrotation Yrotation Zrotation
    JOINT LShin
    {
      OFFSET 0.005253 -0.285539 0.0
      CHANNELS 3 Xrotation Yrotation Zrotation
      JOINT LFoot
      {
        OFFSET 0.0 -0.28038 0.0
        CHANNELS 3 Xrotation Yrotation Zrotation
        JOINT LToe
        {
          OFFSET 0.0 -0.030816 0.064441
          CHANNELS 3 Xrotation Yrotation Zrotation
          End Site
          {
            OFFSET 0.0 0.0 0.043231
          }
        }
      }
    }
  }
}
MOTION
Frames: 13
Frame Time: 0.03333333333333333
0.164312 0.559498 1.65382 10.355474 -44.575748 3.411858 0.179792 -0.191919 -0.206117 -1.052726 -1.0962 1.224382 -7.894714 -9.972492 4.333546 -0.890834 0.063164 -0.399618 0.003597 0.015803 -0.005364 0.262593 -0.191685 -12.856481 15.293844 -32.311749 -48.870148 8.757321 -25.130423 -0.655774 0.027578 0.065805 -0.032863 -0.479744 0.37521 10.744686 28.735559 22.962296 49.782234 6.802821 17.996223 1.687785 0.140568 -0.189301 0.00482 -13.421521 -14.591956 3.883993 8.083322 -6.734523 2.1701 -0.158808 2.193618 0.451478 -0.018301 0.156794 0.028883 -9.901752 -4.976926 4.450202 30.527241 0.12142 -1.626387 -1.590836 0.051388 0.261454 -0.195343 0.037343 0.043602 
0.152231 0.55475 1.654114 10.004187 -45.034893 3.611066 0.212557 -0.135755 -0.189903 -0.936098 -0.914861 1.107567 -7.99502 -9.141685 3.872833 -0.918868 0.0832 -0.324743 0.010072 0.036839 -0.002358 0.172706 -0.14067 -12.865726 17.038107 -32.201149 -48.767265 10.450104 -23.357544 -0.893197 0.02343 0.053833 -0.023535 -0.406809 0.559702 10.610102 28.167175 25.933746 48.337769 6.252783 17.979975 1.629481 0.179417 -0.213104 0.009056 -11.135207 -13.543245 3.383759 6.805798 -6.374845 2.443063 -0.879759 2.099076 0.48639 -0.000116 0.152371 0.025709 -13.338692 -5.976612 5.250913 34.680676 -0.311272 -1.545985 -1.440761 0.132685 0.218223 -0.14676 0.055948 0.052656 
0.141258 0.558127 1.663421 8.709618 -44.504658 3.215762 0.240524 -0.048156 -0.084344 -0.819461 -0.66784 1.002332 -8.05953 -7.985034 3.218949 -0.894516 0.137236 -0.263944 0.017425 0.017756 -0.002649 0.010217 -0.260248 -12.886664 18.505119 -31.965075 -49.413048 11.119487 -21.107281 -1.130573 0.025963 0.05671 -0.024904 -0.434455 0.80647 10.500173 27.327847 28.109354 47.023849 5.941856 18.056889 1.618679 0.171403 -0.219013 0.00816 -8.633344 -11.81756 2.913463 6.742824 -5.817334 2.568069 -1.593845 1.98217 0.431836 -0.002046 0.151064 0.033798 -16.500311 -6.575165 4.75848 35.096828 -1.207347 -1.447375 -1.347028 0.131537 0.227106 -0.094089 0.042023 0.042804 
0.133643 0.559512 1.671645 6.737941 -46.120312 2.024793 0.256245 0.02826 0.059495 -0.69938 -0.40121 0.936795 -7.611094 -6.593391 2.456302 -0.820387 0.225726 -0.221447 0.0233 -0.030647 -0.001729 -0.164575 -0.477797 -12.902061 19.071402 -31.684483 -51.367455 10.420464 -18.591059 -1.16361 0.033726 0.069397 -0.037163 -0.572573 0.992 10.460066 25.199339 29.748165 46.284401 5.865001 18.300922 1.694169 0.126238 -0.22306 0.001195 -5.071056 -9.626986 2.92661 5.810401 -5.044616 2.48715 -1.99706 1.848923 0.31401 -0.028233 0.179023 0.05715 -17.696445 -7.02081 3.60773 31.406658 -2.506174 -1.120202 -1.458668 0.14064 0.318981 -0.044406 -0.001196 0.016701 
0.127512 0.558889 1.678707 5.047767 -52.047283 1.661911 0.158869 0.074608 0.176817 -0.598781 -0.181301 0.840543 -6.550363 -5.046933 1.998466 -0.790548 0.273825 -0.244174 0.024601 -0.063563 0.005835 -0.18919 -0.624393 -12.92025 19.479147 -31.285709 -53.430656 9.369925 -17.073952 -1.116658 0.040669 0.083159 -0.052953 -0.557401 1.100503 10.452342 23.116211 30.183041 45.724968 5.268 19.539125 1.42243 0.092717 -0.238256 -0.007312 -2.123494 -7.366701 2.777586 4.845626 -4.187761 2.363146 -2.054373 1.898107 0.307062 -0.082296 0.206479 0.072405 -18.166788 -6.359951 2.382492 26.133282 -3.341889 -0.744787 -1.504172 0.126624 0.385241 -0.001475 -0.045989 -0.009064 
0.120551 0.556708 1.684137 4.405775 -59.739487 2.026858 0.116029 0.118915 0.200018 -0.648907 -0.188766 0.772037 -5.687919 -4.149831 2.268022 -0.707559 0.288042 -0.285341 0.01693 -0.043962 0.020194 -0.236659 -0.751228 -12.820009 19.62262 -30.193211 -55.023273 8.321884 -17.095022 -1.454432 0.039388 0.084583 -0.053712 -0.439831 1.109887 10.311247 21.382317 29.596098 45.579388 4.44905 20.659786 1.156011 0.092064 -0.231935 -0.010129 -0.054275 -6.221946 2.853618 4.784453 -3.651322 2.420982 -2.310671 2.008778 0.360272 -0.128351 0.202735 0.052419 -20.489302 -5.462913 1.249506 22.218554 -3.664243 -0.016999 -1.337647 0.164335 0.405777 0.022373 -0.064948 -0.019381 
0.107957 0.554316 1.685608 7.332035 -67.278481 6.608009 0.095204 0.155233 0.197157 -0.780341 -0.233471 0.759326 -5.552389 -3.558052 2.794209 -0.570434 0.276513 -0.32132 0.005223 -0.009573 0.042916 -0.297448 -0.692051 -12.744396 20.187717 -28.684742 -55.705891 8.157112 -18.268173 -2.045884 0.030326 0.068947 -0.041445 -0.373993 1.105627 10.271494 20.38957 29.208704 45.325329 3.71809 21.576134 1.427647 0.102518 -0.203608 -0.00567 0.591914 -5.1655 2.208225 5.540798 -3.440293 2.667535 -2.660965 1.948576 0.342994 -0.164626 0.182355 0.033525 -23.387291 -4.810496 0.053561 19.385723 -3.626372 0.684986 -1.097632 0.197385 0.381445 0.021675 -0.055269 -0.021644 
0.087047 0.552437 1.686628 16.586002 -74.833763 16.814672 0.089739 0.175756 0.226655 -0.909022 -0.253937 0.784575 -5.246569 -2.625476 3.231467 -0.409561 0.302899 -0.360851 0.001789 -0.00391 0.06941 -0.271189 -0.586173 -12.535755 20.83527 -27.033701 -56.369545 8.03818 -19.227316 -1.903535 0.024463 0.05391 -0.025496 -0.370909 0.782364 10.489514 19.533627 28.657623 44.760609 3.242485 23.010593 1.706886 0.102108 -0.177606 -0.001086 1.39195 -4.796475 2.261599 7.043232 -3.627661 2.805365 -2.771028 1.880687 0.313935 -0.1974 0.169559 0.032324 -24.930914 -4.504385 -0.145251 17.174801 -3.592809 1.196423 -0.724994 0.250885 0.371756 0.02462 -0.039248 -0.018656 
0.065144 0.550612 1.687017 31.454268 -79.721687 32.087215 0.050849 0.17507 0.261031 -0.983148 -0.216449 0.786574 -4.740585 -1.865397 3.403984 -0.306558 0.321302 -0.393711 0.001287 -0.002845 0.088445 -0.237078 -0.499002 -12.415319 21.153912 -25.844177 -56.827644 7.862662 -19.717434 -1.576967 0.021518 0.046445 -0.0166 -0.363335 0.485004 10.777102 18.798172 28.129642 44.574066 2.842604 23.852175 1.793582 0.085825 -0.163047 -0.001612 2.305471 -4.719292 2.348881 8.197161 -3.761873 2.81311 -2.817663 1.809156 0.281179 -0.232866 0.155213 0.034805 -25.155024 -4.404504 -0.207897 15.421275 -3.600017 1.483325 -0.399543 0.283695 0.367783 0.033979 -0.034623 -0.017654 
0.045302 0.548238 1.686747 51.41124 -82.165985 52.108574 0.025006 0.170339 0.291374 -1.017185 -0.155904 0.770025 -4.162039 -1.255034 3.584782 -0.236546 0.33481 -0.438615 0.001365 -0.004885 0.100442 -0.20849 -0.467964 -12.335927 21.098846 -24.87019 -57.226048 7.589497 -19.926361 -1.272981 0.019927 0.043228 -0.011625 -0.345939 0.213399 11.031774 18.01568 27.546381 44.757473 2.30983 24.16041 1.7864 0.071572 -0.1572 -0.002642 2.911822 -4.790988 2.426987 9.217905 -3.910435 2.803912 -2.905759 1.760991 0.2515 -0.260621 0.146771 0.038357 -25.289188 -4.4474 -0.163991 14.30877 -3.71875 1.655453 -0.195057 0.267273 0.355061 0.044452 -0.034687 -0.017485 
0.028531 0.545767 1.68701 68.468002 -83.046219 69.054573 0.016181 0.15647 0.312815 -1.052582 -0.113727 0.75478 -3.723041 -0.876026 3.761755 -0.183982 0.337552 -0.478862 0.001104 -0.012534 0.106507 -0.187591 -0.430872 -12.333459 20.633921 -24.22271 -57.493137 7.244879 -19.831303 -1.024527 0.018441 0.040657 -0.008291 -0.322032 0.040898 11.213324 17.168594 27.049824 45.374439 1.930438 24.050318 1.827141 0.054779 -0.153965 -0.004047 3.046215 -5.036713 2.391664 10.618579 -4.107806 2.777816 -2.996991 1.717764 0.229704 -0.285594 0.135279 0.042178 -25.210087 -4.627067 -0.118841 13.626259 -3.954846 1.752771 -0.091078 0.235067 0.344869 0.052743 -0.035411 -0.018352 
0.014563 0.543998 1.689311 87.095596 -83.567665 87.572052 0.004348 0.119199 0.357424 -1.075392 -0.087626 0.757888 -3.092688 -0.666512 3.786608 -0.113989 0.352564 -0.499941 0.001489 -0.032043 0.105641 -0.146466 -0.394164 -12.418262 19.670893 -23.773361 -57.276127 6.780103 -19.676121 -0.772493 0.020557 0.045798 -0.0114 -0.309255 -0.076914 11.315656 16.447245 27.153513 45.982773 1.810654 23.416336 1.804585 0.032602 -0.157674 -0.006424 2.203547 -5.234602 1.927777 12.862534 -4.329837 2.797523 -2.972084 1.633374 0.198746 -0.305315 0.13292 0.049732 -24.264523 -4.892286 -0.154894 12.834706 -4.449419 1.891405 -0.155436 0.172801 0.350937 0.063587 -0.047541 -0.024672 
0.001349 0.54291 1.691657 93.132133 -83.544846 93.493622 0.013989 0.068378 0.37604 -1.089548 -0.088251 0.761156 -2.591176 -0.695468 3.630676 -0.034112 0.349512 -0.488741 -0.000863 -0.055241 0.104406 -0.093042 -0.368206 -12.541228 18.581938 -23.86492 -56.769878 6.349657 -19.352741 -0.586375 0.022576 0.048732 -0.012485 -0.289613 -0.077347 11.415833 15.816283 27.48637 46.727646 1.637793 22.276718 1.834962 0.016051 -0.154731 -0.007455 1.053728 -5.386424 1.454188 14.82348 -4.51767 2.770154 -2.932778 1.519753 0.164664 -0.317903 0.129208 0.057546 -23.286268 -5.194028 -0.323001 12.392772 -4.954364 2.048845 -0.371484 0.133365 0.355337 0.069304 -0.054994 -0.031973 
